<svg viewBox="0 0 64 64" xml:space="preserve" xmlns="http://www.w3.org/2000/svg" enable-background="new 0 0 64 64"><circle cx="32" cy="26" r="15" fill="#ffcb57" class="fill-ffcb57"></circle><path d="M61 31.184v-8.369a2.996 2.996 0 0 0 2-2.816c0-1.654-1.346-3-3-3-.344 0-.67.07-.978.177l-4.481-5.602c.286-.457.459-.994.459-1.574 0-1.654-1.346-3-3-3a2.99 2.99 0 0 0-2.145.909l-7.883-3.638C41.981 4.18 42 4.093 42 4c0-1.654-1.346-3-3-3a2.996 2.996 0 0 0-2.816 2H24.816A2.996 2.996 0 0 0 22 1c-1.654 0-3 1.346-3 3 0 .124.022.243.037.363l-4.96 2.48A2.99 2.99 0 0 0 12 6c-1.654 0-3 1.346-3 3 0 .58.173 1.117.458 1.576l-4.481 5.601A2.962 2.962 0 0 0 4 16c-1.654 0-3 1.346-3 3 0 1.302.839 2.402 2 2.816v6.369A2.994 2.994 0 0 0 1 31c0 1.654 1.346 3 3 3a2.991 2.991 0 0 0 2.59-1.513l5.459.993A2.997 2.997 0 0 0 15 36c.041 0 .078-.01.118-.012l1.908 4.77A2.983 2.983 0 0 0 16 43c0 1.654 1.346 3 3 3a2.991 2.991 0 0 0 2.437-1.264l8.582 2.452A2.99 2.99 0 0 0 32 49.816v7.369a2.996 2.996 0 0 0-2 2.816c0 1.654 1.346 3 3 3s3-1.346 3-3a2.996 2.996 0 0 0-2-2.816v-7.369A2.996 2.996 0 0 0 36 47c0-.958-.46-1.804-1.162-2.353l1.194-3.582 8.973 2.991a2.992 2.992 0 0 0 1.994 2.759v10.369a2.996 2.996 0 0 0-2 2.816c0 1.654 1.346 3 3 3s3-1.346 3-3a2.996 2.996 0 0 0-2-2.816V46.816a2.996 2.996 0 0 0 2-2.816c0-.365-.075-.711-.195-1.035l7.673-6.394c.448.266.965.429 1.523.429 1.654 0 3-1.346 3-3a2.996 2.996 0 0 0-2-2.816zm-43.006 1.76c-.002-.12-.02-.235-.036-.351l8.203-4.253 2.537 8.173-10.704-3.569zm-2.232-2.834-1.386-10.628 6.853-.343a2.997 2.997 0 0 0 2.652 1.848l1.679 5.411-8.517 4.416a3.007 3.007 0 0 0-1.281-.704zm-8.99-12.25a2.928 2.928 0 0 0-.231-.436l4.481-5.601c.116.04.23.083.351.109l.739 5.661-5.34.267zm6.583-6.198A2.992 2.992 0 0 0 15 9c0-.124-.022-.243-.037-.363l4.96-2.48a2.98 2.98 0 0 0 3.738.338l6.21 4.657-4.496 4.196A2.982 2.982 0 0 0 24 15a2.994 2.994 0 0 0-2.86 2.142l-7.024.351-.761-5.831zm22.898-6.465-4.897 4.57L24.999 5h11.185c.024.066.041.133.069.197zm2.788 14.211-8.047 4.173-4.295-4.295c.187-.392.301-.824.301-1.286 0-.426-.092-.829-.252-1.196l4.748-4.432 7.653 5.74A2.968 2.968 0 0 0 39 19c0 .14.023.273.041.408zM25 18a1.001 1.001 0 0 1-2 0 1.001 1.001 0 0 1 2 0zm4.132 6.546-1.769.917-1.209-3.895 2.978 2.978zm-1.167 2.858 2.65-1.374 4.685 4.685c-.186.391-.3.823-.3 1.285 0 .959.46 1.804 1.162 2.353l-1.394 4.182-3.734-1.245-3.069-9.886zM38 33a1.001 1.001 0 0 1 0-2 1.001 1.001 0 0 1 0 2zm0-4a2.95 2.95 0 0 0-1.285.301l-4.237-4.237 7.48-3.879A2.978 2.978 0 0 0 42 22c.558 0 1.075-.163 1.523-.43l4.553 3.794-8.083 4.409A2.982 2.982 0 0 0 38 29zm12.578-16.375c.425.232.905.375 1.422.375.344 0 .669-.07.977-.177l4.481 5.602A2.974 2.974 0 0 0 57 20c0 .161.023.317.048.471l-7.083 3.864-5.16-4.3c.12-.324.195-.67.195-1.035 0-.407-.083-.794-.23-1.148l5.808-5.227zm7.9 18.804-6.861-5.718 6.391-3.486c.287.258.622.458.993.59v8.369a3.009 3.009 0 0 0-.523.245zM43 19a1.001 1.001 0 0 1-2 0 1.001 1.001 0 0 1 2 0zm6.728 7.742 7.166 5.972-15.526-1.412 8.36-4.56zM61 20a1.001 1.001 0 0 1-2 0 1.001 1.001 0 0 1 2 0zM52 9a1.001 1.001 0 1 1-1 1c0-.551.448-1 1-1zm-2.973.729C49.019 9.82 49 9.907 49 10c0 .407.083.794.23 1.148l-5.809 5.227A2.948 2.948 0 0 0 42 16a2.98 2.98 0 0 0-1.661.505l-7.358-5.519 4.645-4.335c.413.216.876.349 1.374.349.841 0 1.6-.35 2.145-.909l7.882 3.638zM39 3a1.001 1.001 0 1 1-1 1c0-.551.448-1 1-1zM22 3a1.001 1.001 0 1 1-1 1c0-.551.448-1 1-1zM12 8a1.001 1.001 0 1 1-1 1c0-.551.448-1 1-1zM4 18a1.001 1.001 0 1 1-1 1c0-.551.448-1 1-1zm0 14a1.001 1.001 0 0 1 0-2 1.001 1.001 0 0 1 0 2zm1-3.816v-6.369a2.993 2.993 0 0 0 1.86-1.958l5.512-.276 1.394 10.69a3.001 3.001 0 0 0-1.356 1.24l-5.458-.991A2.994 2.994 0 0 0 5 28.184zM14 33a1.001 1.001 0 1 1 1 1c-.552 0-1-.449-1-1zm2.974 2.241a2.95 2.95 0 0 0 .379-.403l12.075 4.025 1.783 5.743a3.013 3.013 0 0 0-.648.657l-8.582-2.452A2.995 2.995 0 0 0 19 40c-.04 0-.078.01-.117.012l-1.909-4.771zM19 44a1.001 1.001 0 0 1 0-2 1.001 1.001 0 0 1 0 2zm14 17a1.001 1.001 0 0 1 0-2 1.001 1.001 0 0 1 0 2zm0-13a1.001 1.001 0 0 1 0-2 1.001 1.001 0 0 1 0 2zm.034-4.264-1.271-4.094 2.372.791-1.101 3.303zm5.022-8.742a2.994 2.994 0 0 0 2.662-1.743l16.386 1.49c.026.1.056.198.091.294l-7.673 6.394A2.969 2.969 0 0 0 48 41c-.958 0-1.804.46-2.353 1.162l-8.982-2.994 1.391-4.174zM48 61a1.001 1.001 0 0 1 0-2 1.001 1.001 0 0 1 0 2zm0-16a1.001 1.001 0 0 1 0-2 1.001 1.001 0 0 1 0 2zm12-10a1.001 1.001 0 0 1 0-2 1.001 1.001 0 0 1 0 2z" fill="#ffffff" class="fill-3f3a34"></path><path d="M3 1h2v2H3zM3 5h2v2H3zM5 3h2v2H5zM1 3h2v2H1zM53 47h2v2h-2zM53 51h2v2h-2zM55 49h2v2h-2zM51 49h2v2h-2zM59 5h2v2h-2zM59 9h2v2h-2zM61 7h2v2h-2zM57 7h2v2h-2zM13 49h2v2h-2zM13 53h2v2h-2zM15 51h2v2h-2zM11 51h2v2h-2zM7 38h2v2H7zM7 42h2v2H7zM9 40h2v2H9zM5 40h2v2H5z" fill="#e56565" class="fill-e56565"></path></svg>