<svg xmlns="http://www.w3.org/2000/svg" xmlns:xlink="http://www.w3.org/1999/xlink" viewBox="0 0 512 512"><defs><linearGradient id="a" x1="84.895" y1="116.647" x2="141.734" y2="116.647" gradientUnits="userSpaceOnUse"><stop offset="0" stop-color="#4ea4fb" class="stop-color-4ea4fb"></stop><stop offset=".642" stop-color="#1fc8d0" class="stop-color-1fc8d0"></stop><stop offset="1" stop-color="#1fc8d0" class="stop-color-1fc8d0"></stop></linearGradient><linearGradient id="b" y1="256.097" y2="256.097" xlink:href="#a"></linearGradient><linearGradient id="c" y1="395.546" y2="395.546" xlink:href="#a"></linearGradient><linearGradient id="d" x1="64.748" y1="115.365" x2="161.864" y2="115.365" xlink:href="#a"></linearGradient><linearGradient id="e" x1="64.754" y1="256.096" x2="161.874" y2="256.096" xlink:href="#a"></linearGradient><linearGradient id="f" x1="64.754" y1="395.343" x2="161.874" y2="395.343" xlink:href="#a"></linearGradient><linearGradient id="g" x1="350.132" y1="256.096" x2="447.252" y2="256.096" xlink:href="#a"></linearGradient><linearGradient id="h" x1="370.272" y1="256.097" x2="427.112" y2="256.097" xlink:href="#a"></linearGradient><linearGradient id="i" x1="223.882" x2="280.74" xlink:href="#a"></linearGradient><linearGradient id="j" x1="223.882" y1="256.097" x2="280.74" y2="256.097" xlink:href="#a"></linearGradient><linearGradient id="k" x1="223.882" y1="395.546" x2="280.74" y2="395.546" xlink:href="#a"></linearGradient></defs><path d="M113.305 88.228c15.71 0 28.429 12.719 28.429 28.41 0 15.71-12.72 28.43-28.429 28.43-15.691 0-28.41-12.72-28.41-28.43 0-15.691 12.719-28.41 28.41-28.41Z" fill="url(#a)" class="fillurl(-a)"></path><path d="M113.305 227.677c15.71 0 28.429 12.72 28.429 28.41 0 15.71-12.72 28.43-28.429 28.43-15.691 0-28.41-12.72-28.41-28.43 0-15.69 12.719-28.41 28.41-28.41Z" fill="url(#b)" class="fillurl(-b)"></path><path d="M113.305 367.126c15.71 0 28.429 12.72 28.429 28.41 0 15.71-12.72 28.43-28.429 28.43-15.691 0-28.41-12.72-28.41-28.43 0-15.69 12.719-28.41 28.41-28.41Z" fill="url(#c)" class="fillurl(-c)"></path><path d="M109.373 66.962c29.924-2.363 54.698 22.429 52.335 52.334-1.846 23.537-20.916 42.607-44.452 44.471-29.925 2.363-54.698-22.429-52.354-52.353 1.865-23.537 20.934-42.606 44.471-44.452Zm32.36 49.676c0-15.691-12.718-28.41-28.428-28.41-15.691 0-28.41 12.719-28.41 28.41 0 15.71 12.719 28.43 28.41 28.43 15.71 0 28.429-12.72 28.429-28.43Z" fill="url(#d)" class="fillurl(-d)"></path><path d="M161.874 256.087c0 12.572-4.781 24.017-12.627 32.657-8.88 9.784-21.69 15.912-35.942 15.912-26.804 0-48.55-21.746-48.55-48.569 0-26.804 21.746-48.55 48.55-48.55 14.122 0 26.841 6.018 35.702 15.636 7.975 8.657 12.867 20.214 12.867 32.914Zm-20.14 0c0-15.69-12.72-28.41-28.429-28.41-15.691 0-28.41 12.72-28.41 28.41 0 15.71 12.719 28.43 28.41 28.43 15.71 0 28.429-12.72 28.429-28.43Z" fill="url(#e)" class="fillurl(-e)"></path><path d="M113.305 346.783c26.823 0 48.57 21.746 48.57 48.569 0 26.804-21.747 48.55-48.57 48.55-26.804 0-48.55-21.746-48.55-48.55 0-26.823 21.746-48.57 48.55-48.57Zm28.429 48.753c0-15.69-12.72-28.41-28.429-28.41-15.691 0-28.41 12.72-28.41 28.41 0 15.71 12.719 28.43 28.41 28.43 15.71 0 28.429-12.72 28.429-28.43Z" fill="url(#f)" class="fillurl(-f)"></path><path d="M113.305 88.228c15.71 0 28.429 12.719 28.429 28.41 0 15.71-12.72 28.43-28.429 28.43-15.691 0-28.41-12.72-28.41-28.43 0-15.691 12.719-28.41 28.41-28.41ZM113.305 227.677c15.71 0 28.429 12.72 28.429 28.41 0 15.71-12.72 28.43-28.429 28.43-15.691 0-28.41-12.72-28.41-28.43 0-15.69 12.719-28.41 28.41-28.41ZM113.305 367.126c15.71 0 28.429 12.72 28.429 28.41 0 15.71-12.72 28.43-28.429 28.43-15.691 0-28.41-12.72-28.41-28.43 0-15.69 12.719-28.41 28.41-28.41Z" fill="none" stroke="#ffffff" stroke-linecap="round" stroke-linejoin="round" stroke-width="4.84px" class="stroke-000000"></path><path d="M398.701 207.537c26.805 0 48.55 21.746 48.55 48.55 0 26.823-21.745 48.57-48.55 48.57-13.771 0-26.213-5.742-35.056-14.972-8.362-8.713-13.513-20.565-13.513-33.598s5.15-24.866 13.513-33.579c8.824-9.23 21.266-14.971 35.056-14.971Zm28.41 48.55c0-15.69-12.719-28.41-28.41-28.41-15.71 0-28.429 12.72-28.429 28.41 0 15.71 12.72 28.43 28.43 28.43 15.69 0 28.41-12.72 28.41-28.43Z" fill="url(#g)" class="fillurl(-g)"></path><path d="M398.701 227.677c15.691 0 28.41 12.72 28.41 28.41 0 15.71-12.719 28.43-28.41 28.43-15.71 0-28.429-12.72-28.429-28.43 0-15.69 12.72-28.41 28.43-28.41Z" fill="url(#h)" class="fillurl(-h)"></path><path d="M300.88 116.638a48.255 48.255 0 0 1-9.212 28.43c-8.805 12.201-23.149 20.14-39.357 20.14-12.442 0-23.795-4.69-32.398-12.406-9.913-8.88-16.153-21.783-16.153-36.164 0-26.804 21.728-48.55 48.551-48.55s48.569 21.746 48.569 48.55Zm-20.14 0c0-15.691-12.72-28.41-28.429-28.41-15.691 0-28.429 12.719-28.429 28.41 0 15.71 12.738 28.43 28.429 28.43 15.71 0 28.429-12.72 28.429-28.43ZM252.311 207.537c26.823 0 48.569 21.746 48.569 48.55 0 26.823-21.746 48.57-48.569 48.57-12.331 0-23.592-4.616-32.158-12.203-10.06-8.88-16.393-21.875-16.393-36.367 0-14.99 6.812-28.41 17.5-37.326 8.419-7.015 19.237-11.224 31.051-11.224Zm28.429 48.55c0-15.69-12.72-28.41-28.429-28.41-15.691 0-28.429 12.72-28.429 28.41 0 15.71 12.738 28.43 28.429 28.43 15.71 0 28.429-12.72 28.429-28.43ZM287.238 362.917c8.455 8.732 13.642 20.602 13.642 33.708 0 26.823-21.746 48.57-48.569 48.57s-48.55-21.747-48.55-48.57c0-15.045 6.83-28.484 17.574-37.382a48.307 48.307 0 0 1 30.976-11.168 48.32 48.32 0 0 1 34.927 14.842Zm-6.498 32.62c0-15.692-12.72-28.411-28.429-28.411-15.691 0-28.429 12.72-28.429 28.41 0 15.71 12.738 28.43 28.429 28.43 15.71 0 28.429-12.72 28.429-28.43Z" fill="#000000" class="fill-ffffff"></path><path d="M252.311 88.228c15.71 0 28.429 12.719 28.429 28.41 0 15.71-12.72 28.43-28.429 28.43-15.691 0-28.429-12.72-28.429-28.43 0-15.691 12.738-28.41 28.429-28.41Z" fill="url(#i)" class="fillurl(-i)"></path><path d="M252.311 227.677c15.71 0 28.429 12.72 28.429 28.41 0 15.71-12.72 28.43-28.429 28.43-15.691 0-28.429-12.72-28.429-28.43 0-15.69 12.738-28.41 28.429-28.41Z" fill="url(#j)" class="fillurl(-j)"></path><path d="M252.311 367.126c15.71 0 28.429 12.72 28.429 28.41 0 15.71-12.72 28.43-28.429 28.43-15.691 0-28.429-12.72-28.429-28.43 0-15.69 12.738-28.41 28.429-28.41Z" fill="url(#k)" class="fillurl(-k)"></path><path d="M113.305 346.783c26.823 0 48.57 21.746 48.57 48.569 0 26.804-21.747 48.55-48.57 48.55-26.804 0-48.55-21.746-48.55-48.55 0-26.823 21.746-48.57 48.55-48.57ZM149.247 288.744c-8.88 9.784-21.69 15.912-35.942 15.912-26.804 0-48.55-21.746-48.55-48.569 0-26.804 21.746-48.55 48.55-48.55 14.122 0 26.841 6.018 35.702 15.636 7.975 8.657 12.867 20.214 12.867 32.914 0 12.572-4.781 24.017-12.627 32.657ZM221.335 359.243a48.307 48.307 0 0 1 30.976-11.168 48.32 48.32 0 0 1 34.927 14.842c8.455 8.732 13.642 20.602 13.642 33.708 0 26.823-21.746 48.57-48.569 48.57s-48.55-21.747-48.55-48.57c0-15.045 6.83-28.484 17.574-37.382ZM221.26 218.76c8.419-7.014 19.237-11.223 31.051-11.223 26.823 0 48.569 21.746 48.569 48.55 0 26.823-21.746 48.57-48.569 48.57-12.331 0-23.592-4.616-32.158-12.203-10.06-8.88-16.393-21.875-16.393-36.367 0-14.99 6.812-28.41 17.5-37.326ZM109.373 66.962c29.924-2.363 54.698 22.429 52.335 52.334-1.846 23.537-20.916 42.607-44.452 44.471-29.925 2.363-54.698-22.429-52.354-52.353 1.865-23.537 20.934-42.606 44.471-44.452ZM219.913 152.802c-9.913-8.88-16.153-21.783-16.153-36.164 0-26.804 21.728-48.55 48.551-48.55s48.569 21.746 48.569 48.55a48.255 48.255 0 0 1-9.212 28.43c-8.805 12.201-23.149 20.14-39.357 20.14-12.442 0-23.795-4.69-32.398-12.406Z" fill="none" stroke="#ffffff" stroke-linecap="round" stroke-linejoin="round" stroke-width="4.84px" class="stroke-000000"></path><path d="M252.311 88.228c15.71 0 28.429 12.719 28.429 28.41 0 15.71-12.72 28.43-28.429 28.43-15.691 0-28.429-12.72-28.429-28.43 0-15.691 12.738-28.41 28.429-28.41ZM252.311 227.677c15.71 0 28.429 12.72 28.429 28.41 0 15.71-12.72 28.43-28.429 28.43-15.691 0-28.429-12.72-28.429-28.43 0-15.69 12.738-28.41 28.429-28.41ZM398.701 227.677c15.691 0 28.41 12.72 28.41 28.41 0 15.71-12.719 28.43-28.41 28.43-15.71 0-28.429-12.72-28.429-28.43 0-15.69 12.72-28.41 28.43-28.41ZM252.311 367.126c15.71 0 28.429 12.72 28.429 28.41 0 15.71-12.72 28.43-28.429 28.43-15.691 0-28.429-12.72-28.429-28.43 0-15.69 12.738-28.41 28.429-28.41Z" fill="none" stroke="#ffffff" stroke-linecap="round" stroke-linejoin="round" stroke-width="4.84px" class="stroke-000000"></path><path d="M363.645 222.508c8.824-9.23 21.266-14.971 35.056-14.971 26.805 0 48.55 21.746 48.55 48.55 0 26.823-21.745 48.57-48.55 48.57-13.771 0-26.213-5.742-35.056-14.972-8.362-8.713-13.513-20.565-13.513-33.598s5.15-24.866 13.513-33.579ZM316.22 396.625h16.892c32.14 0 58.205-26.047 58.205-58.205v-20.657M316.22 114.035h16.892c32.14 0 58.205 26.066 58.205 58.206v20.73M221.206 359.096l-33.838-33.838-35.85-35.868" fill="none" stroke="#ffffff" stroke-linecap="round" stroke-linejoin="round" stroke-width="4.84px" class="stroke-000000"></path><path d="m149.709 362.917 37.659-37.659 32.637-32.638M221.206 218.687l-33.69-33.69-36.958-36.976" fill="none" stroke="#ffffff" stroke-linecap="round" stroke-linejoin="round" stroke-width="4.84px" class="stroke-000000"></path><path d="m149.709 222.508 37.806-37.511 32.048-31.789M196.358 396.625H168.28M201.231 256.087h-39.357M347.585 256.087H300.88M291.668 145.067l71.977 77.441M363.645 289.685l-76.407 73.232" fill="none" stroke="#ffffff" stroke-linecap="round" stroke-linejoin="round" stroke-width="4.84px" class="stroke-000000"></path></svg>